<mxfile host="app.diagrams.net" modified="2023-11-03T10:53:40.282Z" agent="Mozilla/5.0 (Windows NT 10.0; Win64; x64) AppleWebKit/537.36 (KHTML, like Gecko) Chrome/118.0.0.0 Safari/537.36" version="22.0.8" etag="ta5lUeL-LlJ4tYUw-AdD" type="github">
  <diagram name="Page-1" id="hxKY9NsaX4BMCIy6oxgq">
    <mxGraphModel>
      <root>
        <mxCell id="0" />
        <mxCell id="1" parent="0" />
      </root>
    </mxGraphModel>
  </diagram>
</mxfile>
